PathFileType	4	(X/Y/Z)	/Users/itak/Documents/Research/Walk-IL/dataset/trc/00023_00004.trc
DataRate	CameraRate	NumFrames	NumMarkers	Units	OrigDataRate	OrigDataStartFrame	OrigNumFrames
100.000000	100.000000	4	53	mm	100.000000	0	844
Frame#	Time	RPSI			LPSI			L3			STRN			T10			C7			CLAV			RBAK			LBAK			LSHO			LUPA			LAEL			LAOL			LWTS			LWPS			LFRA			LIFD			LHPS			LHTS			RSHO			RUPA			RAEL			RAOL			RWTS			RWPS			RFRA			RIFD			RHTS			RHPS			RBHD			LFHD			RFHD			LBHD			LHIP			RHIP			RASI			LASI			LKNE			LTHI			LANK			LTIP			LTOE			LMT1			LMT5			LHEE			RKNE			RTHI			RANK			RTIP			RTOE			RMT1			RMT5			RHEE			
		X1	Y1	Z1	X2	Y2	Z2	X3	Y3	Z3	X4	Y4	Z4	X5	Y5	Z5	X6	Y6	Z6	X7	Y7	Z7	X8	Y8	Z8	X9	Y9	Z9	X10	Y10	Z10	X11	Y11	Z11	X12	Y12	Z12	X13	Y13	Z13	X14	Y14	Z14	X15	Y15	Z15	X16	Y16	Z16	X17	Y17	Z17	X18	Y18	Z18	X19	Y19	Z19	X20	Y20	Z20	X21	Y21	Z21	X22	Y22	Z22	X23	Y23	Z23	X24	Y24	Z24	X25	Y25	Z25	X26	Y26	Z26	X27	Y27	Z27	X28	Y28	Z28	X29	Y29	Z29	X30	Y30	Z30	X31	Y31	Z31	X32	Y32	Z32	X33	Y33	Z33	X34	Y34	Z34	X35	Y35	Z35	X36	Y36	Z36	X37	Y37	Z37	X38	Y38	Z38	X39	Y39	Z39	X40	Y40	Z40	X41	Y41	Z41	X42	Y42	Z42	X43	Y43	Z43	X44	Y44	Z44	X45	Y45	Z45	X46	Y46	Z46	X47	Y47	Z47	X48	Y48	Z48	X49	Y49	Z49	X50	Y50	Z50	X51	Y51	Z51	X52	Y52	Z52	X53	Y53	Z53	

1	0	-35.50720977783203	1075.2548828125	1078.874633789062	-58.59864044189453	1063.73291015625	916.6369018554688	-56.77320861816406	1127.373413085938	988.9541625976562	160.4403686523438	1328.703369140625	971.9249877929688	-90.07710266113281	1271.843627929688	990.9818115234375	-49.55411529541016	1541.135986328125	982.320068359375	113.0840301513672	1452.682250976562	972.8297729492188	-92.82295989990234	1401.70947265625	1063.489990234375	-73.89975738525391	1502.090209960938	886.3718872070312	21.27095985412598	1513.210571289062	806.1857299804688	-12.46496868133545	1391.21337890625	726.2709350585938	-8.861858367919922	1174.352172851562	694.0234375	-56.56843566894531	1158.248657226562	787.3896484375	86.89273834228516	920.9215087890625	734.1234130859375	7.588903427124023	905.8154296875	698.2473754882812	5.679896354675293	1058.71484375	682.9241333007812	113.3881301879883	733.4883422851562	750.6428833007812	40.20855712890625	815.8055419921875	695.0848388671875	107.7863693237305	824.7548217773438	719.4302368164062	38.48066329956055	1527.154541015625	1145.766845703125	30.83275413513184	1458.643188476562	1220.038940429688	2.075760841369629	1189.955932617188	1249.76025390625	-6.135370254516602	1161.343627929688	1154.2900390625	131.3126373291016	928.8956298828125	1213.475219726562	73.26044464111328	914.5885009765625	1283.206176757812	17.61987113952637	1113.951904296875	1265.50537109375	159.3932800292969	743.8251342773438	1204.295288085938	170.4015960693359	821.615478515625	1227.629028320312	119.1031875610352	816.702392578125	1281.56005859375	-14.48344326019287	1711.9482421875	1007.164672851562	186.3798828125	1736.449340820312	924.3693237304688	102.9320526123047	1748.166137695312	872.3297119140625	110.6515960693359	1692.73486328125	1075.844116210938	26.36631965637207	963.3035278320312	794.3311157226562	89.51710510253906	964.5648803710938	1163.559448242188	184.7964324951172	999.828369140625	1077.933227539062	147.2199554443359	1014.428771972656	845.8677368164062	78.79945373535156	519.5523071289062	831.7135009765625	53.12484359741211	656.1632690429688	799.15869140625	-15.88258266448975	41.57037734985352	819.8861083984375	-3.02090859413147	290.1806030273438	809.3009033203125	204.8217926025391	38.74074172973633	882.8513793945312	145.4827575683594	46.61635971069336	900.777099609375	109.1482391357422	40.5291748046875	801.6716918945312	-84.49987030029297	48.04969787597656	872.6634521484375	90.32637023925781	529.2227172851562	1126.679077148438	112.564453125	798.0307006835938	1164.2177734375	-27.4440803527832	46.07621383666992	1117.800170898438	64.12380218505859	406.1722717285156	1130.929809570312	206.7380523681641	44.21735000610352	1087.375244140625	145.3929443359375	50.52671432495117	1054.060913085938	120.3463897705078	41.91014099121094	1148.610961914062	-80.37709808349609	47.20919418334961	1070.714721679688	
2	0.01	-35.46205902099609	1075.244262695312	1078.852294921875	-58.57175827026367	1063.73291015625	916.614990234375	-56.73700714111328	1127.37255859375	988.9415283203125	160.50341796875	1328.670288085938	971.9077758789062	-89.96597290039062	1271.850341796875	990.9544067382812	-49.46953201293945	1541.11962890625	982.336669921875	113.1579971313477	1452.6591796875	972.82861328125	-92.729736328125	1401.69970703125	1063.490844726562	-73.80035400390625	1502.101806640625	886.38427734375	21.35062599182129	1513.216552734375	806.1896362304688	-12.4195556640625	1391.215942382812	726.2733764648438	-8.835986137390137	1174.354125976562	694.02685546875	-56.5311393737793	1158.263061523438	787.4006958007812	86.89205169677734	920.9035034179688	734.1387939453125	7.565515041351318	905.8125610351562	698.250732421875	5.682685852050781	1058.710815429688	682.92529296875	113.3071212768555	733.4866333007812	750.7205200195312	40.17602920532227	815.778076171875	695.0839233398438	107.7243118286133	824.7381591796875	719.4528198242188	38.5510368347168	1527.1259765625	1145.761474609375	30.90251350402832	1458.6123046875	1220.032470703125	2.270157098770142	1189.899291992188	1249.781982421875	-5.979493618011475	1161.289672851562	1154.311157226562	131.4996490478516	928.9658203125	1213.47607421875	73.62644958496094	914.5956420898438	1283.1826171875	17.87531852722168	1113.96630859375	1265.548095703125	159.9657440185547	743.8775634765625	1204.261962890625	170.8645782470703	821.7489013671875	1227.574584960938	119.5467376708984	816.7354736328125	1281.566650390625	-14.47792911529541	1711.981567382812	1007.092651367188	186.4278564453125	1736.475952148438	924.431396484375	103.0968475341797	1748.149658203125	872.3280029296875	110.6138610839844	1692.8349609375	1075.8701171875	26.38267707824707	963.29443359375	794.3087158203125	89.64500427246094	964.5619506835938	1163.525512695312	184.5357666015625	999.7493286132812	1077.824829101562	147.2510528564453	1014.42333984375	845.8121337890625	78.80602264404297	519.5482788085938	831.671875	53.12946319580078	656.1551513671875	799.1300659179688	-15.89716720581055	41.58304595947266	819.8838500976562	-3.030799865722656	290.1701354980469	809.2900390625	204.8251800537109	38.7403564453125	882.850341796875	145.4913024902344	46.62079620361328	900.7618408203125	109.1551895141602	40.51720809936523	801.6642456054688	-84.49857330322266	48.05047988891602	872.6712646484375	90.40486145019531	529.2120361328125	1126.635009765625	112.535026550293	798.0057983398438	1164.194702148438	-27.43855285644531	46.08864593505859	1117.80029296875	64.15564727783203	406.1526184082031	1130.908569335938	206.7418518066406	44.21466064453125	1087.382568359375	145.3983306884766	50.50333404541016	1054.109375	120.3469772338867	41.88608932495117	1148.617065429688	-80.37668609619141	47.22024536132812	1070.7177734375	
3	0.02	-35.40622329711914	1075.231811523438	1078.821166992188	-58.53584289550781	1063.733032226562	916.588623046875	-56.68408584594727	1127.367797851562	988.9232177734375	160.5858306884766	1328.627563476562	971.88720703125	-89.83235168457031	1271.853271484375	990.9176635742188	-49.36518096923828	1541.0986328125	982.357177734375	113.2458114624023	1452.632446289062	972.8289184570312	-92.61639404296875	1401.680297851562	1063.487548828125	-73.67853546142578	1502.11083984375	886.4010620117188	21.44920349121094	1513.222045898438	806.1950073242188	-12.36119174957275	1391.216796875	726.2786865234375	-8.800804138183594	1174.354736328125	694.0289306640625	-56.48064422607422	1158.276611328125	787.4153442382812	86.89030456542969	920.8779296875	734.1541137695312	7.540472507476807	905.8070068359375	698.25537109375	5.689997673034668	1058.704223632812	682.9268798828125	113.2133026123047	733.4850463867188	750.8121948242188	40.13691711425781	815.7452392578125	695.0816040039062	107.6538238525391	824.7138061523438	719.4756469726562	38.63609313964844	1527.090576171875	1145.758666992188	30.98861885070801	1458.572387695312	1220.024658203125	2.51095986366272	1189.823486328125	1249.80908203125	-5.787861347198486	1161.222534179688	1154.333129882812	131.8195648193359	929.0595092773438	1213.475952148438	74.07005310058594	914.5997314453125	1283.155883789062	18.19597625732422	1113.9814453125	1265.60107421875	160.6355590820312	743.9357299804688	1204.220947265625	171.4235687255859	821.9118041992188	1227.508666992188	120.1219940185547	816.76953125	1281.552368164062	-14.47284507751465	1712.016967773438	1007.003051757812	186.4853057861328	1736.514038085938	924.5115966796875	103.2927398681641	1748.13037109375	872.3284912109375	110.5695495605469	1692.957763671875	1075.906005859375	26.4030933380127	963.2832641601562	794.2781372070312	89.80142974853516	964.5567016601562	1163.483764648438	184.2617797851562	999.6615600585938	1077.699951171875	147.2932891845703	1014.416320800781	845.7407836914062	78.81864929199219	519.5426635742188	831.618408203125	53.13876342773438	656.14453125	799.0916748046875	-15.9155445098877	41.59858703613281	819.8812866210938	-3.034657955169678	290.1583557128906	809.2763061523438	204.8304138183594	38.7388801574707	882.848388671875	145.4992980957031	46.62774658203125	900.7460327148438	109.160774230957	40.50343704223633	801.654541015625	-84.49752807617188	48.04965209960938	872.6793823242188	90.50141143798828	529.1979370117188	1126.580322265625	112.5205688476562	797.9805908203125	1164.156860351562	-27.43454170227051	46.10116195678711	1117.799438476562	64.20156097412109	406.1265563964844	1130.880493164062	206.7483673095703	44.21548843383789	1087.387817382812	145.4045715332031	50.47866821289062	1054.161743164062	120.3474655151367	41.86632537841797	1148.619506835938	-80.37718963623047	47.23189926147461	1070.719482421875	
4	0.03	-35.34054565429688	1075.218627929688	1078.781372070312	-58.49042892456055	1063.733276367188	916.5592651367188	-56.61350631713867	1127.357666015625	988.898681640625	160.6851348876953	1328.576904296875	971.8645629882812	-89.68389892578125	1271.848999023438	990.8720703125	-49.24668121337891	1541.0732421875	982.3806762695312	113.3414459228516	1452.604125976562	972.83154296875	-92.48849487304688	1401.649291992188	1063.478881835938	-73.54113006591797	1502.114135742188	886.4217529296875	21.56072998046875	1513.225952148438	806.2015991210938	-12.29201984405518	1391.215209960938	726.28759765625	-8.756550788879395	1174.353271484375	694.029052734375	-56.41675186157227	1158.28662109375	787.4337158203125	86.88800811767578	920.84521484375	734.1668701171875	7.517148494720459	905.79833984375	698.2608032226562	5.703346252441406	1058.694702148438	682.9288330078125	113.1123428344727	733.482421875	750.9115600585938	40.09418487548828	815.7086791992188	695.0775146484375	107.5840377807617	824.6814575195312	719.494384765625	38.73060989379883	1527.049926757812	1145.760375976562	31.08648681640625	1458.524291992188	1220.015991210938	2.785737991333008	1189.730346679688	1249.839477539062	-5.568719387054443	1161.144897460938	1154.352661132812	132.2833709716797	929.1715698242188	1213.4736328125	74.56542205810547	914.5975341796875	1283.127563476562	18.56454086303711	1113.994018554688	1265.659057617188	161.3609619140625	743.9972534179688	1204.171020507812	172.0562896728516	822.0951538085938	1227.436767578125	120.8068618774414	816.8004150390625	1281.511962890625	-14.4687614440918	1712.05078125	1006.900390625	186.5485534667969	1736.564208984375	924.6078491210938	103.5058746337891	1748.109619140625	872.3323364257812	110.5197296142578	1693.098022460938	1075.952026367188	26.42722511291504	963.2704467773438	794.23974609375	89.97725677490234	964.5480346679688	1163.435791015625	184.0128021240234	999.573486328125	1077.568969726562	147.3470306396484	1014.407958984375	845.6559448242188	78.83885192871094	519.5352783203125	831.5546875	53.15483474731445	656.13232421875	799.0441284179688	-15.93588161468506	41.61556243896484	819.8787841796875	-3.02882194519043	290.1464233398438	809.260498046875	204.8369750976562	38.73636627197266	882.845703125	145.5056610107422	46.63695526123047	900.7308349609375	109.1640472412109	40.48888778686523	801.6432495117188	-84.49712371826172	48.04736709594727	872.6865234375	90.61016082763672	529.1810302734375	1126.517700195312	112.5298843383789	797.9573974609375	1164.103393554688	-27.432373046875	46.11237716674805	1117.797607421875	64.26195526123047	406.0957641601562	1130.846557617188	206.75732421875	44.22024917602539	1087.389770507812	145.4112243652344	50.45650863647461	1054.210205078125	120.3479614257812	41.85454559326172	1148.616821289062	-80.37834167480469	47.24327087402344	1070.718627929688	
